# xmcd
#
# Track frame offsets:
# 150
# 20470
# 37465
# 58067
# 83710
# 102549
# 133398
# 162092
# 174701
# 193967
# 212565
# 222255
#
# Disc length: 3323 seconds
#
#
# Revision: 0
# Processed by: cddbd v1.5.1PL2 Copyright (c) Steve Scherf et al.
# Submitted via: FreeRIP 2.931 
#
DISCID=ba0cf90c
DTITLE=Various Artist - The Strat Kings
DYEAR=2004
DGENRE=Instrumental
TTITLE0=Stratking (Blug)
TTITLE1=Message of Love (Deml)
TTITLE2=Kom (Borg)
TTITLE3=Close To God ( Birta)
TTITLE4=Stratified (Wursten-Olms)
TTITLE5=Touch Wood (Rose)
TTITLE6=Center Street (Birta)
TTITLE7=Rise and Shine (Rose)
TTITLE8=Still on Vacation (Borg)
TTITLE9=Funny Stuff (Wursten-Olms)
TTITLE10='99 (Deml)
TTITLE11=Love Crimes (Blug)
EXTD=The Finalists of the FEnder Strat King competition on the 50th anniversary of the Fender Stratocaster
EXTT0=
EXTT1=
EXTT2=
EXTT3=
EXTT4=
EXTT5=
EXTT6=
EXTT7=
EXTT8=
EXTT9=
EXTT10=
EXTT11=
PLAYORDER=
